<svg width="512" height="512" viewBox="0 0 512 512" xmlns="http://www.w3.org/2000/svg">
  <!-- 背景 -->
  <rect width="512" height="512" fill="#2a2a2a" rx="80"/>

  <!-- 音符图标 - 居中 -->
  <g transform="translate(256, 256)">
    <path d="M -60 104 C -60 129 -80 144 -100 144 C -120 144 -140 129 -140 104 C -140 79 -120 64 -100 64 C -95 64 -90 65 -85 67 L -85 -76 C -85 -86 -80 -91 -70 -93 L 80 -126 C 90 -128 100 -123 100 -113 L 100 54 C 100 79 80 94 60 94 C 40 94 20 79 20 54 C 20 29 40 14 60 14 C 65 14 70 15 75 17 L 75 -91 L -60 -53 Z" fill="#ffffff"/>
  </g>
</svg>
